<svg width="200" height="200" viewBox="0 0 200 200" fill="none" xmlns="http://www.w3.org/2000/svg">
<path d="M108.464 151.5H66.804V183.632H108.464V151.5Z" fill="#EBEBEB"/>
<path d="M98.0281 183.408C97.9721 183.408 97.9241 176.244 97.9241 167.408C97.9241 158.572 97.9721 151.408 98.0281 151.408C98.0841 151.408 98.1321 158.572 98.1321 167.408C98.1321 176.244 98.0841 183.408 98.0281 183.408Z" fill="#E0E0E0"/>
<path d="M104.932 176.32H101.74V179.932H104.932V176.32Z" fill="#FAFAFA"/>
<path d="M84.2479 151.584H79.5159V158.44H84.2479V151.584Z" fill="#E0E0E0"/>
<path d="M84.2479 176.68H79.5159V183.536H84.2479V176.68Z" fill="#E0E0E0"/>
<path d="M184.06 143.444H131.528V183.96H184.06V143.444Z" fill="#EBEBEB"/>
<path d="M170.896 183.672C170.84 183.672 170.792 174.644 170.792 163.504C170.792 152.364 170.84 143.336 170.896 143.336C170.952 143.336 171 152.364 171 163.504C171 174.644 170.956 183.672 170.896 183.672Z" fill="#E0E0E0"/>
<path d="M179.604 174.736H175.576V179.288H179.604V174.736Z" fill="#FAFAFA"/>
<path d="M153.52 143.548H147.552V152.192H153.52V143.548Z" fill="#E0E0E0"/>
<path d="M153.52 175.192H147.552V183.836H153.52V175.192Z" fill="#E0E0E0"/>
<path d="M32.5839 144.636C34.7119 143.54 37.2159 143.396 39.5759 143.788C40.8439 143.996 42.1639 144.376 43.0279 145.328C43.8919 146.28 44.0519 147.956 43.0639 148.776C42.4719 149.264 41.6519 149.336 40.8839 149.328C39.0359 149.304 36.9879 148.98 35.5119 150.092C34.6679 150.728 34.1079 151.78 33.1119 152.092C32.1159 152.404 31.0159 151.816 30.4959 150.928C30.0149 150.002 29.9089 148.926 30.1999 147.924C30.3177 147.229 30.5941 146.571 31.0076 146.001C31.421 145.431 31.9605 144.964 32.5839 144.636Z" fill="#EBEBEB"/>
<path d="M27.712 135.232C29.012 137.088 31.54 136.476 32.712 135.34C33.884 134.204 34.38 132.564 34.828 131C35.86 127.42 36.896 123.664 36.132 120.02C35.9481 118.914 35.4622 117.882 34.728 117.036C34.3564 116.62 33.8825 116.309 33.3535 116.133C32.8245 115.956 32.2587 115.922 31.712 116.032C30.436 116.368 29.644 117.632 29.072 118.804C27.3856 122.307 26.5028 126.143 26.488 130.032C26.488 131.844 26.692 133.74 27.712 135.232Z" fill="#EBEBEB"/>
<path d="M24.144 137.896C25.556 136.22 25.824 133.78 25.196 131.68C24.568 129.58 23.148 127.796 21.512 126.336C19.5878 124.625 17.3488 123.304 14.92 122.448C13.9786 122.068 12.9661 121.896 11.952 121.944C11.4461 121.973 10.9549 122.125 10.5213 122.388C10.0876 122.65 9.72466 123.014 9.46397 123.448C8.76797 124.772 9.43597 126.376 10.156 127.688C11.4239 129.997 12.871 132.202 14.484 134.284C15.784 135.956 17.284 137.608 19.248 138.364C21.212 139.12 23.284 139.032 24.332 137.66" fill="#EBEBEB"/>
<path d="M27.6239 163.24C27.6934 162.965 27.7336 162.683 27.7439 162.4C27.8039 161.784 27.8759 161.012 27.9679 160.096C28.0826 158.962 28.2548 157.835 28.4839 156.72C28.7845 155.355 29.1952 154.018 29.7119 152.72C30.2187 151.43 30.9041 150.218 31.7479 149.12C32.4378 148.226 33.3159 147.495 34.3199 146.98C35.0028 146.643 35.7344 146.416 36.4879 146.308C36.7716 146.297 37.0532 146.255 37.3279 146.184C37.0448 146.152 36.7591 146.152 36.4759 146.184C35.6934 146.243 34.9279 146.442 34.2159 146.772C33.1557 147.272 32.2259 148.011 31.4999 148.932C30.6168 150.045 29.9049 151.284 29.3879 152.608C28.8718 153.921 28.4703 155.277 28.1879 156.66C27.9703 157.79 27.8194 158.932 27.7359 160.08C27.6639 161.06 27.6359 161.852 27.6239 162.4C27.5944 162.679 27.5944 162.96 27.6239 163.24Z" fill="#E0E0E0"/>
<path d="M27.7841 161.472C27.8078 161.34 27.8159 161.206 27.8081 161.072C27.8081 160.776 27.8081 160.404 27.8081 159.952C27.8081 158.98 27.8081 157.572 27.8561 155.836C27.9441 152.364 28.2561 148.636 28.8201 143.36C29.3681 138.404 30.1001 132.64 30.8761 128.892C31.0401 128.04 31.2081 127.272 31.3681 126.6C31.5281 125.928 31.6441 125.344 31.7681 124.876C31.8921 124.408 31.9601 124.076 32.0321 123.788C32.0712 123.658 32.094 123.523 32.1001 123.388C32.0398 123.504 31.9941 123.628 31.9641 123.756C31.8761 124.04 31.7681 124.392 31.6361 124.828C31.5041 125.264 31.3441 125.872 31.1761 126.54C31.0081 127.208 30.8161 127.976 30.6361 128.828C29.6752 133.26 28.9528 137.742 28.4721 142.252C27.8961 147.532 27.6361 152.34 27.6121 155.82C27.6121 157.56 27.6121 158.972 27.6721 159.944C27.7001 160.396 27.7241 160.768 27.7401 161.06C27.7381 161.198 27.7529 161.337 27.7841 161.472Z" fill="#E0E0E0"/>
<path d="M27.808 152.2C27.8385 151.81 27.8385 151.418 27.808 151.028C27.764 150.276 27.66 149.192 27.448 147.86C27.1863 146.303 26.8364 144.762 26.4 143.244C25.8955 141.376 25.2496 139.55 24.468 137.78C23.1297 134.519 21.209 131.529 18.8 128.956C18.382 128.514 17.9357 128.1 17.464 127.716C17.26 127.54 17.064 127.368 16.896 127.232L16.4 126.876C16.0887 126.639 15.7582 126.427 15.412 126.244C15.356 126.32 16.808 127.176 18.64 129.124C20.9703 131.721 22.8398 134.697 24.168 137.924C24.9362 139.682 25.5843 141.49 26.108 143.336C26.5478 144.84 26.9123 146.364 27.2 147.904C27.44 149.22 27.6 150.304 27.664 151.04C27.6811 151.43 27.7292 151.818 27.808 152.2Z" fill="#E0E0E0"/>
<path d="M18.2239 167.144L19.1519 179.876H35.5079L36.4359 167.144H18.2239Z" fill="#EBEBEB"/>
<path d="M38.384 162.128H16.644V167.144H38.384V162.128Z" fill="#EBEBEB"/>
<path d="M16.644 179.388V180.776H17.668H38.028V179.388H16.644Z" fill="#E0E0E0"/>
<path d="M18.668 183.072L17.668 180.624H37.248L36.08 183.072H18.668Z" fill="#E0E0E0"/>
<path d="M36.132 171.304C36.1116 171.347 36.0861 171.388 36.056 171.424C35.992 171.508 35.908 171.616 35.812 171.748L34.86 172.948L34.816 173.004L34.776 172.948L32.436 169.712H32.568L30.264 172.972L30.192 173.076L30.112 172.98L27.38 169.728H27.536L27.388 169.92L24.944 172.98L24.86 173.084L24.788 172.976L22.48 169.716H22.616L19.776 172.948L19.728 173.008L19.688 172.94L18.8 171.468C18.704 171.308 18.632 171.176 18.572 171.068C18.5418 171.024 18.5176 170.975 18.5 170.924C18.5374 170.963 18.5697 171.006 18.596 171.052L18.848 171.432L19.78 172.9H19.692L22.492 169.628L22.56 169.544L22.624 169.632L24.952 172.88H24.8L27.236 169.812C27.288 169.748 27.34 169.684 27.384 169.624L27.464 169.524L27.544 169.62L30.268 172.88H30.116L32.444 169.636L32.512 169.54L32.576 169.636C33.5 170.952 34.284 172.068 34.868 172.908H34.784L35.776 171.708C35.884 171.584 35.972 171.484 36.04 171.4C36.0683 171.366 36.099 171.334 36.132 171.304Z" fill="#F5F5F5"/>
<path d="M36.6639 167.06C36.6639 167.116 32.5639 167.164 27.5119 167.164C22.4599 167.164 18.3599 167.116 18.3599 167.06C18.3599 167.004 22.4559 166.96 27.5119 166.96C32.5679 166.96 36.6639 167.004 36.6639 167.06Z" fill="#F5F5F5"/>
<path d="M151.369 22.7201L148.017 22.7383L148.107 39.418L151.459 39.3999L151.369 22.7201Z" fill="#E0E0E0"/>
<path d="M127.657 22.7646L118.978 22.8115L119.027 32.0194L127.707 31.9724L127.657 22.7646Z" fill="#EBEBEB"/>
<path d="M136.297 22.7177L127.617 22.7646L127.667 31.9725L136.347 31.9256L136.297 22.7177Z" fill="#F5F5F5"/>
<path d="M118.988 25.3598C124.759 25.4078 130.532 25.3811 136.308 25.2798C136.332 25.2798 136.356 25.2701 136.373 25.2529C136.39 25.2356 136.4 25.2122 136.4 25.1878C136.4 25.1634 136.39 25.14 136.373 25.1227C136.356 25.1055 136.332 25.0958 136.308 25.0958C130.54 25.0638 124.756 25.0958 118.988 25.2038C118.97 25.2078 118.955 25.2177 118.943 25.2319C118.932 25.2461 118.926 25.2637 118.926 25.2818C118.926 25.2999 118.932 25.3175 118.943 25.3317C118.955 25.3459 118.97 25.3558 118.988 25.3598Z" fill="#E0E0E0"/>
<path d="M129.338 31.8199L113.567 31.9053L113.607 39.4092L129.379 39.3238L129.338 31.8199Z" fill="#EBEBEB"/>
<path d="M145.034 31.735L129.262 31.8203L129.303 39.3242L145.074 39.2389L145.034 31.735Z" fill="#F5F5F5"/>
<path d="M113.576 33.9997C124.052 34.1157 134.564 33.9997 145.044 33.8437C145.068 33.8437 145.092 33.834 145.109 33.8168C145.126 33.7995 145.136 33.7761 145.136 33.7517C145.136 33.7273 145.126 33.7039 145.109 33.6867C145.092 33.6694 145.068 33.6597 145.044 33.6597C134.568 33.6037 124.052 33.6077 113.576 33.8397C113.555 33.8397 113.534 33.8481 113.519 33.8631C113.504 33.8781 113.496 33.8985 113.496 33.9197C113.496 33.9409 113.504 33.9613 113.519 33.9763C113.534 33.9913 113.555 33.9997 113.576 33.9997Z" fill="#E0E0E0"/>
<path d="M168.78 39.416H107.676V42.104H168.78V39.416Z" fill="#E0E0E0"/>
<path d="M120.16 40.708H117.68V49.88H120.16V40.708Z" fill="#E0E0E0"/>
<path d="M157.188 40.708H154.708V49.88H157.188V40.708Z" fill="#E0E0E0"/>
<path d="M154.639 16.4985L151.287 16.5166L151.411 39.4563L154.763 39.4381L154.639 16.4985Z" fill="#EBEBEB"/>
<path d="M159.874 20.7707L154.666 20.7988L154.767 39.3906L159.975 39.3624L159.874 20.7707Z" fill="#F5F5F5"/>
<path d="M159.84 24.3602C158.109 24.4825 156.371 24.4825 154.64 24.3602C156.371 24.2432 158.109 24.2432 159.84 24.3602Z" fill="#E0E0E0"/>
<path d="M159.84 23.5995C158.975 23.6871 158.105 23.7165 157.236 23.6875C156.367 23.7163 155.497 23.6869 154.632 23.5995C156.363 23.4772 158.101 23.4772 159.832 23.5995H159.84Z" fill="#E0E0E0"/>
<path d="M159.84 36.5721C158.109 36.6944 156.371 36.6944 154.64 36.5721C156.371 36.4551 158.109 36.4551 159.84 36.5721Z" fill="#E0E0E0"/>
<path d="M159.84 35.7919C158.109 35.9089 156.371 35.9089 154.64 35.7919C156.371 35.6696 158.109 35.6696 159.84 35.7919Z" fill="#E0E0E0"/>
<path d="M157.32 34.088C157.272 34.088 157.232 32.212 157.232 29.9C157.232 27.588 157.272 25.708 157.32 25.708C157.368 25.708 157.412 27.584 157.412 29.9C157.412 32.216 157.372 34.088 157.32 34.088Z" fill="#E0E0E0"/>
<path d="M165.568 25.3438H159.9V39.3758H165.568V25.3438Z" fill="#EBEBEB"/>
<path d="M152.912 21.388C153.444 21.388 153.876 20.9564 153.876 20.424C153.876 19.8916 153.444 19.46 152.912 19.46C152.38 19.46 151.948 19.8916 151.948 20.424C151.948 20.9564 152.38 21.388 152.912 21.388Z" fill="#E0E0E0"/>
<path d="M153.212 23.0762H152.616V36.7242H153.212V23.0762Z" fill="#E0E0E0"/>
<path d="M185.864 183.74C185.864 183.8 147.416 183.844 100.004 183.844C52.592 183.844 14.136 183.8 14.136 183.74C14.136 183.68 52.576 183.636 100.004 183.636C147.432 183.636 185.864 183.684 185.864 183.74Z" fill="#263238"/>
<path d="M59.6841 36.9404C61.5704 39.2489 62.5918 42.1434 62.5721 45.1244C62.5521 46.8124 62.2401 48.6724 63.2241 50.0444C63.9681 51.0844 65.3281 51.6084 65.9321 52.7364C66.6601 54.0924 66.0401 55.8084 66.4881 57.2804C67.1201 59.3684 69.5681 60.2444 71.0201 61.8724C71.639 62.5923 72.072 63.453 72.2812 64.3791C72.4904 65.3051 72.4694 66.2684 72.2201 67.1844C71.9555 68.0967 71.4771 68.9326 70.8245 69.6228C70.172 70.3129 69.3641 70.8373 68.4681 71.1524C67.5113 71.5296 66.4441 71.5123 65.5001 71.1044C64.5201 70.6164 63.9001 69.6124 63.4201 68.6324C62.4561 66.7044 53.9881 56.2844 53.5081 54.1804" fill="#263238"/>
<path d="M53.5239 34.4846C50.0599 33.9246 46.7239 36.2246 45.2719 39.4166C43.8199 42.6086 43.7719 46.2166 43.6719 49.7366C43.5719 53.2566 43.3159 56.9046 41.5279 59.9206C40.3919 61.8366 38.6319 63.5206 38.3559 65.7246C38.1079 67.7006 39.1319 69.6926 38.7919 71.6566C38.4959 73.3686 37.1919 74.8566 37.2439 76.5886C37.3079 78.6766 39.4559 80.2486 41.5399 80.3046C43.6239 80.3606 45.5759 79.2686 47.2119 77.9726C49.8774 75.8563 52.0103 73.1452 53.4399 70.0566" fill="#263238"/>
<path d="M47.824 42.7403C47.7152 41.8689 47.7825 40.9846 48.022 40.1398C48.2615 39.2949 48.6683 38.5068 49.2182 37.8222C49.7682 37.1376 50.45 36.5705 51.2233 36.1544C51.9966 35.7384 52.8456 35.4819 53.72 35.4003C57.212 35.0643 60.32 37.6683 60.844 41.1403C61.304 44.1843 61.696 47.2563 61.684 48.3723C61.64 51.7363 59.684 53.0443 58.884 53.4403C58.5962 53.5436 58.2987 53.6173 57.996 53.6603V53.6843L58.74 57.5483C59.08 60.0803 57.668 62.3483 55.14 62.7043C52.612 63.0603 50.624 61.1283 50.236 58.5963L47.824 42.7403Z" fill="#FFBE9D"/>
<path d="M60.1559 42.6122C60.0999 42.6922 59.6559 42.4562 59.0879 42.5402C58.5199 42.6242 58.1399 42.9682 58.0679 42.9082C57.9959 42.8482 58.0679 42.7482 58.2439 42.5882C58.4627 42.3752 58.7422 42.2354 59.0439 42.1882C59.3399 42.1426 59.6428 42.1931 59.9079 42.3322C60.1079 42.4602 60.1839 42.5802 60.1559 42.6122Z" fill="#263238"/>
<path d="M55.092 43.8445C55.036 43.9245 54.592 43.6845 54.02 43.7685C53.448 43.8525 53.076 44.2005 53.004 44.1405C52.932 44.0805 53.004 43.9765 53.18 43.8205C53.3987 43.6075 53.6783 43.4677 53.98 43.4205C54.2764 43.3784 54.5785 43.4301 54.844 43.5685C55.04 43.6925 55.12 43.8085 55.092 43.8445Z" fill="#263238"/>
<path d="M57.168 46.8963C57.4541 46.7587 57.7565 46.6579 58.068 46.5963C58.212 46.5603 58.344 46.5123 58.356 46.4083C58.3431 46.2622 58.2874 46.1231 58.196 46.0083L57.6 44.9443C56.772 43.4563 56.152 42.2243 56.212 42.1883C56.272 42.1523 57.012 43.3403 57.812 44.8283C58.016 45.1963 58.212 45.5483 58.388 45.8803C58.5043 46.043 58.5608 46.2408 58.548 46.4403C58.5348 46.4949 58.5092 46.5457 58.4731 46.5887C58.437 46.6317 58.3915 46.6658 58.34 46.6883C58.262 46.7224 58.1801 46.7466 58.096 46.7603C57.7939 46.8459 57.482 46.8916 57.168 46.8963Z" fill="#263238"/>
<path d="M57.9641 53.6641C57.9641 53.6641 55.792 54.1641 52.8 52.9121C52.8 52.9121 54.092 55.6921 58.168 54.7041L57.9641 53.6641Z" fill="#EB996E"/>
<path d="M54.7999 42.3517C54.7679 42.5157 54.1879 42.5237 53.5319 42.7037C52.8759 42.8837 52.3599 43.1397 52.2519 43.0157C52.2039 42.9557 52.2759 42.7957 52.4719 42.6157C52.7358 42.3899 53.0477 42.2272 53.3838 42.1399C53.7199 42.0526 54.0715 42.0429 54.4119 42.1117C54.6759 42.1717 54.7999 42.2757 54.7999 42.3517Z" fill="#263238"/>
<path d="M59.688 41.3524C59.608 41.4964 59.196 41.4204 58.724 41.4804C58.252 41.5404 57.864 41.6964 57.752 41.5724C57.704 41.5124 57.752 41.3764 57.904 41.2284C58.1138 41.0425 58.377 40.9276 58.656 40.9004C58.9315 40.8672 59.2106 40.9189 59.456 41.0484C59.648 41.1564 59.724 41.2804 59.688 41.3524Z" fill="#263238"/>
<path d="M53.8559 44.5806C53.8647 44.6425 53.8857 44.702 53.9177 44.7557C53.9497 44.8094 53.992 44.8562 54.0423 44.8935C54.0925 44.9307 54.1496 44.9575 54.2103 44.9725C54.2711 44.9874 54.3341 44.9902 54.3959 44.9806C54.456 44.9736 54.5141 44.9548 54.5668 44.9253C54.6195 44.8957 54.6659 44.8559 54.7031 44.8083C54.7403 44.7606 54.7677 44.7061 54.7836 44.6477C54.7996 44.5894 54.8037 44.5285 54.7959 44.4686C54.7771 44.344 54.7098 44.232 54.6085 44.157C54.5073 44.082 54.3805 44.0502 54.2559 44.0686C54.1956 44.0749 54.1372 44.0934 54.0842 44.1228C54.0312 44.1522 53.9847 44.192 53.9474 44.2398C53.9101 44.2875 53.8827 44.3423 53.867 44.4009C53.8513 44.4594 53.8475 44.5205 53.8559 44.5806Z" fill="#263238"/>
<path d="M58.9001 43.4878C58.9189 43.6123 58.9862 43.7244 59.0875 43.7993C59.1887 43.8743 59.3155 43.9061 59.4401 43.8878C59.5002 43.8809 59.5583 43.8621 59.611 43.8325C59.6637 43.8029 59.71 43.7632 59.7473 43.7155C59.7845 43.6679 59.8119 43.6133 59.8278 43.555C59.8437 43.4966 59.8479 43.4357 59.8401 43.3758C59.8213 43.2512 59.754 43.1392 59.6527 43.0642C59.5515 42.9892 59.4247 42.9574 59.3001 42.9758C59.2398 42.9822 59.1814 43.0006 59.1284 43.03C59.0754 43.0594 59.0289 43.0992 58.9916 43.147C58.9542 43.1948 58.9269 43.2495 58.9112 43.3081C58.8955 43.3666 58.8917 43.4277 58.9001 43.4878Z" fill="#263238"/>
<path d="M58.064 48.0005C57.9069 47.9517 57.7378 47.9593 57.5858 48.0222C57.4338 48.085 57.3086 48.1991 57.232 48.3445C57.1587 48.4781 57.129 48.6313 57.1469 48.7825C57.1649 48.9338 57.2295 49.0758 57.332 49.1885C57.441 49.2956 57.5845 49.3605 57.7369 49.3715C57.8894 49.3824 58.0407 49.3389 58.164 49.2485C58.3183 49.1081 58.4116 48.9129 58.424 48.7045C58.4511 48.5136 58.4054 48.3194 58.296 48.1605C58.2398 48.0829 58.1596 48.0259 58.0677 47.9984C57.9759 47.971 57.8776 47.9745 57.788 48.0085" fill="#EB996E"/>
<path d="M60.4 38.4001C60.086 37.1328 59.3025 36.032 58.208 35.3201C57.3121 34.673 56.2478 34.2993 55.144 34.2441C54.0333 34.1963 52.9489 34.5904 52.128 35.3401C51.5455 35.9175 51.2124 36.7001 51.2 37.5201L51.264 36.9601C51.0959 37.4158 51.0959 37.9165 51.264 38.3721C51.356 38.6161 51.468 38.8641 51.564 39.1081C51.8504 39.8132 52.3816 40.3913 53.06 40.7361C53.3672 40.9009 53.7114 40.9849 54.06 40.9801C54.2345 40.9766 54.4062 40.9351 54.563 40.8584C54.7198 40.7817 54.8581 40.6717 54.968 40.5361C55.2164 40.1025 55.2934 39.5917 55.184 39.1041C55.4465 39.5859 55.821 39.9975 56.276 40.3041C56.5083 40.4526 56.7846 40.5165 57.0585 40.4852C57.3324 40.4539 57.5872 40.3292 57.78 40.1321C58.108 39.7321 57.98 39.1001 57.78 38.6041C58.0895 39.072 58.5229 39.4445 59.032 39.6801C59.1659 39.757 59.3144 39.8052 59.4679 39.8217C59.6215 39.8382 59.7768 39.8227 59.924 39.7761C60.0417 39.7178 60.1446 39.6334 60.225 39.5295C60.3054 39.4256 60.3611 39.3047 60.388 39.1761C60.4474 38.9213 60.4515 38.6567 60.4 38.4001Z" fill="#263238"/>
<path d="M57.5079 39.4637C57.4719 39.4637 57.4799 38.9877 57.3239 38.2637C57.144 37.3016 56.6603 36.4226 55.9439 35.7557C55.5502 35.3976 55.0752 35.1409 54.5599 35.0077C54.1379 34.9041 53.6985 34.8932 53.2719 34.9757C52.8787 35.0676 52.5031 35.223 52.1599 35.4357C52.1599 35.4357 52.2279 35.3357 52.4039 35.2077C52.6565 35.031 52.9401 34.9035 53.2399 34.8317C53.6885 34.7267 54.1553 34.7267 54.6039 34.8317C55.1567 34.9697 55.6657 35.2448 56.0839 35.6317C56.834 36.3261 57.3238 37.2563 57.4719 38.2677C57.5195 38.5667 57.5436 38.8689 57.5439 39.1717C57.5489 39.2704 57.5367 39.3692 57.5079 39.4637Z" fill="#455A64"/>
<path d="M94.3481 86.0998L78.9681 79.9998C78.9681 79.9998 71.0921 69.6678 71.2561 69.4678L65.7241 75.5238L73.7641 86.3998L92.4001 90.7678L95.6001 89.8798C94.8961 86.4838 94.3481 86.0998 94.3481 86.0998Z" fill="#FFBE9D"/>
<path d="M60.8281 56.6242L58.7321 55.8242L49.6841 56.9722V58.5722L49.4241 58.6042C47.4737 59.0189 45.6029 59.7456 43.8841 60.7562C42.2739 61.7391 40.9946 63.1811 40.2105 64.8968C39.4264 66.6125 39.1734 68.5236 39.4841 70.3842C39.8521 72.6722 40.5641 75.4522 41.9401 77.0602C44.5681 80.1362 46.9681 76.3362 46.9681 76.3362C46.9681 76.3362 48.6161 80.0962 48.5201 81.8762C48.4401 83.3682 47.7841 86.4722 47.5721 87.4402C47.5633 87.4789 47.5626 87.519 47.5699 87.5579C47.5772 87.5969 47.5923 87.634 47.6144 87.667C47.6365 87.6999 47.665 87.728 47.6983 87.7495C47.7316 87.771 47.769 87.7856 47.8081 87.7922L66.8961 91.3242L66.9881 86.6562L66.3801 67.4562L65.5201 60.0002C65.5201 60.0002 65.5481 56.4402 60.8281 56.6242Z" fill="#EBEBEB"/>
<path d="M65.228 58.7598L72.508 69.2758L66.648 76.4118L65.228 58.7598Z" fill="#EBEBEB"/>
<path d="M66.8 80.8881C66.7739 80.6625 66.7645 80.4352 66.772 80.2081C66.772 79.7361 66.772 79.1161 66.748 78.3601C66.7126 76.3311 66.5671 74.3054 66.312 72.2921C66.012 69.9321 65.552 67.8241 65.204 66.2921L64.78 64.4921C64.7186 64.2744 64.6731 64.0525 64.644 63.8281C64.735 64.036 64.8073 64.2515 64.86 64.4721C64.984 64.8721 65.152 65.5001 65.344 66.2601C65.8605 68.2337 66.2533 70.2376 66.52 72.2601C66.7772 74.2818 66.9028 76.3181 66.896 78.3561C66.896 79.1561 66.876 79.7721 66.852 80.2081C66.8541 80.4359 66.8367 80.6633 66.8 80.8881Z" fill="#263238"/>
<path d="M48.8799 64.9001C48.8799 64.9321 48.3279 64.9281 47.4439 64.9721C46.2905 65.0347 45.1433 65.1831 44.0119 65.4161C42.8808 65.6535 41.7686 65.973 40.6839 66.3721C39.8519 66.6801 39.3519 66.9081 39.3359 66.8761C39.4385 66.7958 39.5515 66.7298 39.6719 66.6801C39.8919 66.5601 40.2199 66.4081 40.6319 66.2361C42.7903 65.3448 45.0971 64.8672 47.4319 64.8281C47.8799 64.8281 48.2319 64.8281 48.4919 64.8521C48.623 64.8479 48.7539 64.8641 48.8799 64.9001Z" fill="#FAFAFA"/>
<path d="M65.7401 69.7121C65.4475 69.8184 65.1422 69.8857 64.8321 69.9121C63.353 70.128 61.8545 70.179 60.3641 70.0641C60.0528 70.0587 59.7436 70.013 59.4441 69.9281C59.7528 69.9007 60.0634 69.9007 60.3721 69.9281C60.9401 69.9281 61.7281 69.9281 62.5961 69.9281C63.4641 69.9281 64.2481 69.8401 64.8161 69.7881C65.1211 69.7348 65.4304 69.7094 65.7401 69.7121Z" fill="#FAFAFA"/>
<path d="M69.0801 64.9562C68.6392 65.4656 68.1109 65.8923 67.5201 66.2162C66.9624 66.5932 66.34 66.8644 65.6841 67.0162C65.6601 66.9602 66.4841 66.6162 67.4121 66.0242C68.3401 65.4322 69.0401 64.9082 69.0801 64.9562Z" fill="#FAFAFA"/>
<path d="M66.1399 60.08C64.8779 61.2153 63.2699 61.8917 61.5759 62C61.5759 61.936 62.6759 61.768 63.9399 61.228C65.2039 60.688 66.0999 60.028 66.1399 60.08Z" fill="#FAFAFA"/>
<path d="M66.5361 77.8565C66.4184 77.9356 66.2923 78.0014 66.1601 78.0525C65.9081 78.1725 65.5441 78.3205 65.0801 78.4925C63.8746 78.9257 62.6301 79.2418 61.3641 79.4365C60.098 79.632 58.8159 79.703 57.5361 79.6485C57.0441 79.6285 56.6481 79.5925 56.3761 79.5565C56.2336 79.5471 56.0927 79.5216 55.9561 79.4805C55.9561 79.4445 56.5641 79.4805 57.5561 79.5045C60.0993 79.5282 62.6295 79.1392 65.0481 78.3525C65.9601 78.0525 66.5241 77.8245 66.5361 77.8565Z" fill="#FAFAFA"/>
<path d="M66.6841 83.2764C66.6841 83.2764 66.6281 83.3164 66.5121 83.3764L66.0001 83.6004C65.5601 83.8084 64.9081 84.0804 64.0921 84.4004C63.2761 84.7204 62.2881 85.0284 61.1761 85.3324C58.7586 85.9834 56.2772 86.3683 53.7761 86.4804C52.6241 86.5244 51.5881 86.5204 50.7161 86.4804C49.8441 86.4404 49.1441 86.3764 48.6601 86.3084L48.1041 86.2324C48.0386 86.2276 47.9741 86.2142 47.9121 86.1924C47.977 86.182 48.0432 86.182 48.1081 86.1924L48.6681 86.2284C49.1521 86.2684 49.8681 86.3084 50.7201 86.3324C51.5721 86.3564 52.6241 86.3324 53.7681 86.2924C54.9121 86.2524 56.1681 86.1084 57.4761 85.8924C58.7841 85.6764 60.0161 85.4164 61.1281 85.1364C62.2401 84.8564 63.2241 84.5404 64.0401 84.2484C64.8561 83.9564 65.5201 83.7124 65.9681 83.5284L66.4881 83.3244C66.5516 83.3016 66.6173 83.2855 66.6841 83.2764Z" fill="#FAFAFA"/>
<path d="M31.6 168.312L29.436 178.084L25.488 185.32C25.4209 185.444 25.3798 185.58 25.3673 185.72C25.3549 185.86 25.3712 186.001 25.4155 186.135C25.4597 186.268 25.5309 186.391 25.6245 186.496C25.7182 186.601 25.8324 186.686 25.96 186.744C26.1082 186.812 26.2705 186.844 26.4334 186.836C26.5962 186.829 26.7549 186.782 26.896 186.701C28.728 185.645 35.452 181.713 35.568 180.989C35.708 180.153 38.536 170.832 38.536 170.832L31.6 168.312Z" fill="#EBEBEB"/>
<g opacity="0.6">
<path d="M25.96 186.744L35.732 180.344L35.628 180.744C35.5425 181.101 35.3326 181.416 35.036 181.632C34.236 182.204 32.008 183.74 26.928 186.708C26.7821 186.793 26.6174 186.841 26.4485 186.847C26.2796 186.854 26.1117 186.818 25.96 186.744Z" fill="white"/>
</g>
<g opacity="0.6">
<path d="M34.504 176.708C34.3629 176.767 34.2484 176.876 34.1827 177.014C34.117 177.152 34.1046 177.31 34.148 177.457C34.2014 177.599 34.3074 177.716 34.4443 177.783C34.5812 177.85 34.7385 177.862 34.884 177.817C35.0351 177.754 35.1574 177.637 35.227 177.489C35.2965 177.341 35.3083 177.173 35.26 177.017C35.1892 176.875 35.0668 176.766 34.9181 176.711C34.7693 176.657 34.6054 176.662 34.46 176.724" fill="white"/>
</g>
<path d="M29.224 183.04C29.0627 182.68 28.8362 182.353 28.556 182.076C28.2334 181.851 27.8709 181.69 27.488 181.6C27.488 181.572 27.628 181.528 27.864 181.552C28.1711 181.591 28.4602 181.719 28.696 181.92C28.9337 182.113 29.1091 182.372 29.2 182.664C29.268 182.892 29.248 183.04 29.224 183.04Z" fill="#263238"/>
<path d="M28.212 184.172C28.156 184.204 27.92 183.812 27.452 183.544C27.1534 183.405 26.8461 183.286 26.532 183.188C26.7047 183.131 26.8883 183.117 27.0678 183.145C27.2473 183.174 27.4174 183.244 27.564 183.352C28.096 183.66 28.268 184.16 28.212 184.172Z" fill="#263238"/>
<path d="M30.9201 181.688C30.5799 181.31 30.2108 180.96 29.8161 180.64C29.3812 180.374 28.9265 180.143 28.4561 179.948C28.997 179.937 29.5244 180.118 29.9441 180.46C30.4068 180.738 30.7534 181.174 30.9201 181.688Z" fill="#263238"/>
<path d="M31.8279 178.772C31.7879 178.824 31.3039 178.468 30.6279 178.272C29.9519 178.076 29.3399 178.108 29.3359 178.04C29.7811 177.925 30.2492 177.932 30.6907 178.061C31.1322 178.19 31.5306 178.436 31.8439 178.772H31.8279Z" fill="#263238"/>
<path d="M32.536 175.92C32.1458 175.679 31.7246 175.492 31.284 175.364C30.8301 175.302 30.3699 175.302 29.916 175.364C29.916 175.34 30.04 175.244 30.296 175.168C30.6325 175.077 30.9857 175.065 31.3274 175.135C31.6692 175.204 31.9899 175.353 32.264 175.568C32.468 175.76 32.552 175.904 32.536 175.92Z" fill="#263238"/>
<path d="M31.432 174.824C31.4323 174.697 31.4596 174.572 31.512 174.456C31.6254 174.126 31.805 173.822 32.04 173.564C32.1938 173.359 32.41 173.21 32.656 173.14C32.7398 173.126 32.8257 173.138 32.9027 173.174C32.9798 173.209 33.0443 173.267 33.088 173.34C33.1615 173.489 33.1772 173.66 33.132 173.82C33.0295 174.141 32.8186 174.416 32.5354 174.598C32.2523 174.781 31.9146 174.859 31.58 174.82C31.2501 174.773 30.9415 174.629 30.6931 174.407C30.4447 174.185 30.2676 173.895 30.184 173.572C30.1648 173.49 30.1631 173.405 30.1789 173.322C30.1948 173.239 30.2279 173.161 30.276 173.092C30.3313 173.027 30.4057 172.982 30.4884 172.963C30.5711 172.943 30.6578 172.951 30.736 172.984C30.9621 173.097 31.1551 173.266 31.296 173.476C31.508 173.753 31.6692 174.066 31.772 174.4C31.8208 174.519 31.8439 174.647 31.84 174.776C31.6788 174.345 31.4536 173.94 31.172 173.576C31.0409 173.405 30.8709 173.268 30.676 173.176C30.6332 173.157 30.5855 173.153 30.54 173.164C30.4946 173.175 30.4539 173.2 30.424 173.236C30.3961 173.283 30.3781 173.335 30.3712 173.39C30.3643 173.444 30.3687 173.499 30.384 173.552C30.4675 173.823 30.6259 174.066 30.841 174.251C31.0561 174.437 31.3192 174.557 31.6 174.6C31.883 174.633 32.1687 174.569 32.4106 174.418C32.6525 174.268 32.8363 174.04 32.932 173.772C32.9708 173.663 32.9708 173.545 32.932 173.436C32.9093 173.395 32.8744 173.362 32.832 173.342C32.7897 173.322 32.7421 173.316 32.696 173.324C32.4876 173.381 32.3018 173.501 32.164 173.668C31.8572 174.01 31.6098 174.4 31.432 174.824Z" fill="#263238"/>
<g opacity="0.3">
<path d="M31.3359 169.372L30.8679 171.613L37.9439 172.789L38.5359 170.832L31.5879 168.312L31.3359 169.372Z" fill="black"/>
</g>
<path d="M63.2001 171.928L62.6161 179.736C62.6161 179.736 70.3601 182.936 70.3921 184.408L55.1921 183.82L55.5921 171.612L63.2001 171.928Z" fill="#EBEBEB"/>
<g opacity="0.6">
<path d="M57.9561 178.896C57.8085 178.935 57.6806 179.028 57.5966 179.155C57.5126 179.283 57.4782 179.437 57.5001 179.588C57.5337 179.737 57.6228 179.867 57.7491 179.952C57.8754 180.038 58.0295 180.072 58.1801 180.048C58.337 180.006 58.4729 179.908 58.5615 179.772C58.6502 179.636 58.6853 179.472 58.6601 179.312C58.6095 179.16 58.5022 179.034 58.3605 178.959C58.2189 178.884 58.0539 178.868 57.9001 178.912" fill="white"/>
</g>
<g opacity="0.6">
<path d="M55.2 183.82L55.288 182.588L69.828 183.6C69.828 183.6 70.496 183.92 70.4 184.4L55.2 183.82Z" fill="white"/>
</g>
<path d="M62.872 179.668C62.872 179.744 62.496 179.764 62.124 179.988C61.752 180.212 61.544 180.516 61.476 180.484C61.408 180.452 61.536 180.028 61.992 179.764C62.448 179.5 62.892 179.6 62.872 179.668Z" fill="#263238"/>
<path d="M64.44 180.4C64.44 180.476 64.128 180.588 63.864 180.892C63.6 181.196 63.516 181.524 63.44 181.52C63.364 181.516 63.336 181.092 63.672 180.72C64.008 180.348 64.44 180.32 64.44 180.4Z" fill="#263238"/>
<path d="M65.2721 182.332C65.2041 182.332 65.1161 181.968 65.3201 181.572C65.5241 181.176 65.8801 181.024 65.9081 181.088C65.9361 181.152 65.7161 181.36 65.5521 181.688C65.3881 182.016 65.3441 182.328 65.2721 182.332Z" fill="#263238"/>
<path d="M62.8001 177.876C62.7681 177.94 62.4321 177.824 62.0001 177.836C61.5681 177.848 61.2481 177.968 61.2001 177.904C61.1521 177.84 61.4881 177.588 62.0001 177.58C62.5121 177.572 62.8481 177.82 62.8001 177.876Z" fill="#263238"/>
<g opacity="0.3">
<path d="M63.0921 173.476L62.9881 174.868L55.5281 174.508L55.5801 172.9L63.0921 173.476Z" fill="black"/>
</g>
<path d="M62.9001 176.296C62.6488 176.357 62.3855 176.346 62.1401 176.264C61.8628 176.207 61.594 176.114 61.3401 175.988C61.1921 175.915 61.0491 175.833 60.9121 175.74C60.8286 175.689 60.7532 175.626 60.6881 175.552C60.644 175.495 60.6201 175.425 60.6201 175.352C60.6201 175.28 60.644 175.21 60.6881 175.152C60.727 175.102 60.7775 175.061 60.8352 175.034C60.893 175.007 60.9564 174.994 61.0201 174.996C61.1165 175 61.2119 175.016 61.3041 175.044C61.4642 175.091 61.6196 175.153 61.7681 175.228C62.0207 175.352 62.2517 175.515 62.4521 175.712C62.7921 176.052 62.9001 176.336 62.8761 176.348C62.8521 176.36 62.6801 176.132 62.3321 175.848C62.1278 175.689 61.9049 175.554 61.6681 175.448C61.527 175.39 61.3828 175.339 61.2361 175.296C61.0761 175.248 60.9401 175.244 60.8961 175.296C60.8521 175.348 60.8961 175.336 60.8961 175.384C60.9441 175.437 60.9993 175.483 61.0601 175.52C61.1885 175.61 61.322 175.691 61.4601 175.764C61.6908 175.892 61.9333 175.996 62.1841 176.076C62.4277 176.133 62.667 176.206 62.9001 176.296Z" fill="#263238"/>
<path d="M62.8001 176.4C62.6672 176.176 62.6071 175.916 62.6281 175.656C62.6297 175.374 62.6756 175.095 62.7641 174.828C62.8215 174.671 62.8925 174.52 62.9761 174.376C63.0211 174.277 63.0906 174.191 63.1782 174.127C63.2657 174.062 63.3683 174.021 63.4761 174.008C63.5444 174.012 63.61 174.036 63.6653 174.076C63.7206 174.117 63.7632 174.172 63.7881 174.236C63.8229 174.326 63.8444 174.42 63.8521 174.516C63.8784 174.685 63.8784 174.858 63.8521 175.028C63.7986 175.31 63.6764 175.576 63.4961 175.8C63.1841 176.2 62.8721 176.26 62.8641 176.236C62.8561 176.212 63.1041 176.064 63.3481 175.692C63.4881 175.48 63.5796 175.239 63.6161 174.988C63.6364 174.842 63.6364 174.694 63.6161 174.548C63.5961 174.388 63.5401 174.252 63.4801 174.268C63.4201 174.284 63.2721 174.38 63.2041 174.508C63.126 174.636 63.0578 174.769 63.0001 174.908C62.9075 175.149 62.8483 175.402 62.8241 175.66C62.7721 176.108 62.8401 176.4 62.8001 176.4Z" fill="#263238"/>
<path d="M47.4881 87.7203C47.4881 87.7203 45.0881 87.8283 43.4881 96.0363C41.8881 104.244 29.6921 170.752 29.6921 170.752L38.5361 170.832L55.2001 107.6L54.0921 172.8L63.0761 173.488C63.0761 173.488 69.8161 101.372 69.8761 97.1763C69.9561 91.9443 66.9521 86.6523 66.9521 86.6523L47.4881 87.7203Z" fill="#263238"/>
<path d="M59.6441 87.0205C59.7001 87.0205 58.7801 91.7205 57.5921 97.4925C56.4041 103.265 55.3961 107.937 55.3401 107.925C55.2841 107.913 56.2001 103.225 57.3881 97.4525C58.5761 91.6805 59.6001 87.0085 59.6441 87.0205Z" fill="#455A64"/>
<path d="M61.02 88.1918C61.02 88.1678 61.26 88.0958 61.536 88.3398C61.6144 88.4108 61.6765 88.4981 61.7179 88.5954C61.7593 88.6928 61.7792 88.798 61.776 88.9038C61.766 89.0375 61.7182 89.1657 61.6382 89.2733C61.5582 89.3809 61.4492 89.4636 61.324 89.5118C61.2019 89.5672 61.0667 89.5872 60.9337 89.5695C60.8007 89.5519 60.6754 89.4972 60.572 89.4118C60.4947 89.3392 60.4336 89.2511 60.3929 89.1531C60.3523 89.0552 60.3329 88.9498 60.336 88.8438C60.336 88.4758 60.584 88.3478 60.588 88.3718C60.5206 88.5186 60.4851 88.6782 60.484 88.8398C60.4894 88.921 60.5109 89.0003 60.5473 89.0731C60.5837 89.1459 60.6343 89.2107 60.696 89.2638C60.775 89.3182 60.8663 89.3519 60.9616 89.3617C61.057 89.3716 61.1533 89.3574 61.2417 89.3204C61.3301 89.2833 61.4078 89.2247 61.4676 89.1498C61.5274 89.0749 61.5674 88.9862 61.584 88.8918C61.5899 88.8107 61.5795 88.7293 61.5534 88.6524C61.5273 88.5754 61.486 88.5045 61.432 88.4438C61.236 88.2158 61.016 88.2238 61.02 88.1918Z" fill="#455A64"/>
<path d="M60.6399 91.4399C60.6399 91.4159 60.8879 91.4398 61.0399 91.7718C61.0786 91.8666 61.0961 91.9687 61.0913 92.0709C61.0864 92.1732 61.0594 92.2731 61.0119 92.3638C60.9431 92.4717 60.8463 92.5587 60.7317 92.6156C60.6172 92.6726 60.4893 92.6972 60.3618 92.6869C60.2344 92.6766 60.1121 92.6318 60.0082 92.5573C59.9042 92.4827 59.8226 92.3813 59.7719 92.2638C59.74 92.1674 59.7295 92.0652 59.7412 91.9643C59.753 91.8634 59.7867 91.7663 59.8399 91.6798C60.0279 91.3798 60.2839 91.3878 60.2759 91.4118C60.2679 91.4358 60.0839 91.4918 59.9679 91.7478C59.9092 91.8914 59.9092 92.0523 59.9679 92.1959C60.0097 92.2752 60.0709 92.3428 60.1457 92.3922C60.2206 92.4416 60.3067 92.4712 60.3961 92.4784C60.4855 92.4856 60.5753 92.4701 60.6571 92.4332C60.7389 92.3964 60.81 92.3395 60.8639 92.2678C60.9393 92.1311 60.958 91.9702 60.9159 91.8198C60.7999 91.5478 60.6199 91.4679 60.6399 91.4399Z" fill="#455A64"/>
<path d="M52.164 88.2717C52.1476 88.4091 52.1126 88.5436 52.06 88.6717C51.9351 89.0379 51.7785 89.3926 51.592 89.7317C50.9817 90.8632 50.1003 91.8257 49.0266 92.5328C47.9529 93.24 46.7206 93.6698 45.44 93.7837C45.0554 93.8172 44.6686 93.8172 44.284 93.7837C44.1485 93.7794 44.0141 93.7579 43.884 93.7197C43.884 93.6797 44.488 93.7477 45.444 93.6277C46.69 93.4765 47.8839 93.0384 48.9319 92.3478C49.98 91.6572 50.8536 90.7329 51.484 89.6477C51.952 88.8397 52.128 88.2597 52.164 88.2717Z" fill="#455A64"/>
<path d="M69.372 94.1086C69.372 94.1086 69.268 94.0606 69.104 93.9486C68.8748 93.7838 68.6606 93.5991 68.464 93.3966C67.8061 92.7307 67.2928 91.9361 66.9563 91.0627C66.6197 90.1893 66.4671 89.2557 66.508 88.3206C66.5171 88.0391 66.5533 87.7592 66.616 87.4846C66.66 87.2886 66.688 87.1846 66.704 87.1886C66.72 87.1926 66.656 87.6246 66.656 88.3246C66.6566 90.1621 67.3394 91.9339 68.572 93.2966C69.04 93.8126 69.392 94.0766 69.372 94.1086Z" fill="#455A64"/>
<path d="M100.4 94.3398C100.532 94.0198 100.496 94.1478 98.3761 92.7398C98.3761 92.7398 101.416 94.7398 101.1 93.7878C100.827 93.4272 100.492 93.1171 100.112 92.8718C100.912 93.3438 101.376 93.3958 101.516 93.2038C101.756 92.8718 100.016 91.6038 99.1881 91.0318C99.945 91.5733 100.739 92.0612 101.564 92.4918C102.056 92.6438 101.82 92.0678 101.488 91.6478C101.156 91.2278 98.5801 88.7478 97.8881 88.0078C97.8222 87.9514 97.7693 87.8815 97.7331 87.8028C97.6968 87.7241 97.678 87.6384 97.678 87.5518C97.678 87.4651 97.6968 87.3795 97.7331 87.3007C97.7693 87.222 97.8222 87.1521 97.8881 87.0958C99.1281 86.2958 99.6721 85.0198 99.6561 84.5998C99.6423 84.5052 99.5989 84.4174 99.5322 84.3491C99.4654 84.2807 99.3787 84.2353 99.2845 84.2193C99.1903 84.2033 99.0934 84.2175 99.0078 84.26C98.9222 84.3025 98.8523 84.3711 98.8081 84.4558C98.495 84.8448 98.1303 85.1893 97.7241 85.4798C97.409 85.7255 97.0547 85.9162 96.6761 86.0438C96.2361 86.1878 94.0721 86.0678 93.6081 85.8318L92.1321 90.8358C92.1321 90.8358 97.4881 93.3398 98.5041 93.8278C99.7521 94.4198 100.308 94.5838 100.4 94.3398Z" fill="#FFBE9D"/>
<path d="M97.4121 91.9999C97.3681 92.0599 98.0641 92.5679 98.9641 93.1399C99.8641 93.7119 100.62 94.1239 100.656 94.0639C100.692 94.0039 99.9961 93.4919 99.1001 92.9239C98.2041 92.3559 97.4521 91.9239 97.4121 91.9999Z" fill="#EB996E"/>
<path d="M97.9159 91.02C97.8759 91.08 98.5879 91.664 99.5159 92.328C100.444 92.992 101.212 93.484 101.252 93.428C101.292 93.372 100.584 92.784 99.6519 92.12C98.7199 91.456 97.9599 90.964 97.9159 91.02Z" fill="#EB996E"/>
<path d="M98.448 90.0279C98.408 90.0839 99.072 90.6519 99.932 91.2919C100.792 91.9319 101.532 92.4039 101.564 92.3479C101.596 92.2919 100.944 91.7239 100.084 91.0839C99.224 90.4439 98.492 89.9719 98.448 90.0279Z" fill="#EB996E"/>
<path d="M43.972 71.904L47.9 72.12C48.1782 73.2166 48.5503 74.2872 49.012 75.32C52.176 69.832 54.612 62.476 55.236 59.52C55.148 59.2294 55.04 58.9014 54.912 58.536C54.8162 57.9838 54.8325 57.4179 54.96 56.872C55.068 56.216 55.252 55.328 55.304 54.92C55.476 53.672 55.676 53.472 56.104 53.616C56.696 53.808 55.86 57.124 56.344 57.196C56.608 57.232 56.924 56.096 57.02 55.164C57.116 54.232 57.532 51.368 57.84 51.164C58.292 50.884 58.684 51.328 58.572 52.256C58.46 53.184 58.312 55.996 58.804 56.032C59.296 56.068 59.696 51.316 59.696 51.316C59.696 51.316 59.62 50.284 60.188 50.308C61.216 50.352 60.416 55.364 60.328 55.84C60.264 56.168 60.8 56.24 60.848 55.872C60.896 55.504 61.144 51.116 62.188 51.152C62.988 51.18 61.568 55.28 62.02 56.232C62.472 57.184 62.784 53.004 63.552 53.06C63.836 53.084 64.048 53.14 63.524 55.504C63.0126 57.3838 62.3997 59.2346 61.688 61.048C60.488 67.608 55.132 88.592 46.764 84.752C42.084 82.604 39.896 71.952 39.896 71.952L43.972 71.904Z" fill="#FFBE9D"/>
<path d="M61.6959 61.0845C61.7028 61.0349 61.7162 60.9865 61.7359 60.9405C61.7719 60.8365 61.8159 60.7005 61.8759 60.5405C62.0079 60.1605 62.1879 59.6325 62.4239 58.9405C62.6599 58.2485 62.9439 57.4085 63.2239 56.4165C63.3679 55.9245 63.4879 55.3885 63.5959 54.8165C63.6519 54.5285 63.7039 54.2325 63.7399 53.9285C63.7499 53.778 63.7499 53.627 63.7399 53.4765C63.7399 53.3205 63.7039 53.1925 63.5799 53.1885C63.4559 53.1845 63.3679 53.2605 63.2799 53.3925C63.2002 53.5337 63.1346 53.6824 63.0839 53.8365C62.9719 54.1525 62.8839 54.4885 62.7959 54.8285C62.7079 55.1685 62.6279 55.5245 62.5239 55.8845C62.4786 56.0817 62.3972 56.2688 62.2839 56.4365C62.2554 56.4693 62.2178 56.493 62.1759 56.5045C62.1495 56.5103 62.1221 56.5101 62.0958 56.5038C62.0695 56.4976 62.0449 56.4855 62.0239 56.4685C61.9779 56.4263 61.94 56.3762 61.9119 56.3205C61.8696 56.2223 61.8414 56.1186 61.8279 56.0125C61.8097 55.2057 61.8903 54.3997 62.0679 53.6125C62.1359 53.2125 62.2079 52.8125 62.2599 52.4125C62.2839 52.2085 62.3079 52.0125 62.3119 51.7965C62.3159 51.5805 62.2839 51.3525 62.1999 51.3165C62.1159 51.2805 61.9119 51.3925 61.7999 51.5605C61.6893 51.7379 61.602 51.9288 61.5399 52.1285C61.4035 52.5463 61.3005 52.9743 61.2319 53.4085C61.1559 53.8485 61.0959 54.2965 61.0439 54.7525C61.0239 54.9805 60.9999 55.2085 60.9799 55.4405L60.9479 55.7885C60.9522 55.8628 60.9401 55.9372 60.9124 56.0063C60.8848 56.0754 60.8423 56.1376 60.7879 56.1885C60.7194 56.2385 60.6368 56.2655 60.5519 56.2655C60.4671 56.2655 60.3844 56.2385 60.3159 56.1885C60.2771 56.1629 60.2442 56.1293 60.2194 56.09C60.1946 56.0507 60.1784 56.0065 60.1719 55.9605C60.1658 55.918 60.1658 55.8749 60.1719 55.8325V55.7485L60.2799 55.0485C60.3479 54.5765 60.4039 54.1045 60.4479 53.6245C60.4919 53.1445 60.5279 52.6605 60.5359 52.1765C60.5593 51.6973 60.5108 51.2173 60.3919 50.7525C60.3643 50.6345 60.2928 50.5315 60.1919 50.4645C60.1437 50.449 60.0918 50.4492 60.0436 50.465C59.9955 50.4808 59.9536 50.5114 59.9239 50.5525C59.7944 50.7893 59.7413 51.0603 59.7719 51.3285C59.6839 52.2685 59.5839 53.1925 59.4479 54.1005C59.3799 54.5525 59.3039 55.0045 59.1919 55.4485C59.1599 55.5565 59.1279 55.6685 59.0879 55.7805C59.0499 55.9162 58.9701 56.0366 58.8599 56.1245C58.8112 56.1484 58.7558 56.1551 58.7027 56.1435C58.6497 56.1319 58.6022 56.1026 58.5679 56.0605C58.5191 56.0092 58.4822 55.9477 58.4599 55.8805C58.4168 55.7695 58.3859 55.6542 58.3679 55.5365C58.2742 54.666 58.2661 53.7885 58.3439 52.9165C58.403 52.51 58.4258 52.099 58.4119 51.6885C58.399 51.5133 58.3187 51.3498 58.1879 51.2325C58.1572 51.2134 58.1229 51.2007 58.0872 51.1952C58.0514 51.1897 58.0149 51.1915 57.9799 51.2005C57.9425 51.2131 57.9063 51.2292 57.8719 51.2485C57.8359 51.2805 57.8399 51.2485 57.8159 51.3165C57.6712 51.6762 57.5653 52.0503 57.4999 52.4325C57.4199 52.8325 57.3519 53.1965 57.2919 53.5725C57.2319 53.9485 57.1759 54.3165 57.1279 54.6845C57.0799 55.0525 57.0559 55.4125 56.9839 55.7725C56.9217 56.1242 56.828 56.4696 56.7039 56.8045C56.6709 56.8897 56.6322 56.9726 56.5879 57.0525C56.5319 57.1285 56.4999 57.2245 56.3479 57.2725C56.309 57.2796 56.2689 57.2751 56.2326 57.2594C56.1963 57.2438 56.1654 57.2177 56.1439 57.1845C56.1159 57.1383 56.0944 57.0885 56.0799 57.0365C56.0619 56.9495 56.0512 56.8612 56.0479 56.7725C56.0479 56.0885 56.1399 55.4645 56.1759 54.8605C56.202 54.5717 56.202 54.2812 56.1759 53.9925C56.1759 53.8645 56.1159 53.7125 56.0439 53.6845C55.9935 53.6598 55.9381 53.6469 55.8819 53.6469C55.8257 53.6469 55.7703 53.6598 55.7199 53.6845C55.552 53.8648 55.448 54.0953 55.4239 54.3405C55.3639 54.5845 55.3399 54.8325 55.2959 55.0685C55.1279 56.0125 54.9519 56.8285 54.8679 57.4925C54.8285 57.7845 54.8285 58.0805 54.8679 58.3725C54.9239 58.6125 55.0079 58.8285 55.0519 58.9965C55.0959 59.1645 55.1399 59.2845 55.1679 59.3965C55.1828 59.4394 55.1935 59.4836 55.1999 59.5285C55.1759 59.4898 55.1571 59.4481 55.1439 59.4045L55.0079 59.0045C54.9519 58.8325 54.8679 58.6405 54.7999 58.3765C54.7571 58.0767 54.7571 57.7723 54.7999 57.4725C54.8759 56.7965 55.0359 55.9885 55.1999 55.0405C55.2439 54.8045 55.2679 54.5565 55.3199 54.3005C55.3486 54.1653 55.3846 54.0317 55.4279 53.9005C55.4679 53.755 55.5551 53.6269 55.6759 53.5365C55.7486 53.498 55.8296 53.4778 55.9119 53.4778C55.9942 53.4778 56.0752 53.498 56.1479 53.5365C56.2261 53.5858 56.2904 53.6543 56.3345 53.7356C56.3786 53.8168 56.4011 53.908 56.3999 54.0005C56.4279 54.3012 56.4279 54.6038 56.3999 54.9045C56.3719 55.5125 56.2759 56.1485 56.2919 56.7965C56.2948 56.8731 56.3042 56.9494 56.3199 57.0245C56.3199 57.1005 56.3759 57.1325 56.3679 57.1165C56.3599 57.1005 56.4439 57.0525 56.4759 56.9885C56.5153 56.9175 56.5501 56.844 56.5799 56.7685C56.6984 56.4442 56.7855 56.1094 56.8399 55.7685C56.9079 55.4205 56.9319 55.0605 56.9799 54.6885C57.0279 54.3165 57.0759 53.9485 57.1359 53.5685C57.1959 53.1885 57.2639 52.8085 57.3399 52.4205C57.405 52.0153 57.5177 51.6192 57.6759 51.2405C57.7079 51.177 57.7562 51.1231 57.8159 51.0845C57.8691 51.0553 57.9254 51.0325 57.9839 51.0165C58.051 50.9973 58.1214 50.9927 58.1904 51.0031C58.2594 51.0134 58.3254 51.0385 58.3839 51.0765C58.4767 51.1502 58.5534 51.2422 58.6091 51.3468C58.6649 51.4514 58.6985 51.5663 58.7079 51.6845C58.7379 51.9021 58.7379 52.1229 58.7079 52.3405C58.6879 52.5445 58.6679 52.7405 58.6559 52.9645C58.578 53.8165 58.586 54.6741 58.6799 55.5245C58.697 55.6255 58.7238 55.7246 58.7599 55.8205C58.7719 55.8592 58.7924 55.8947 58.8199 55.9245C58.8199 55.9245 58.8199 55.9245 58.8399 55.9245C58.8399 56.0165 58.8399 55.9245 58.8399 55.9605C58.8399 55.9965 58.8399 55.9605 58.8399 55.9285C58.8898 55.8617 58.9289 55.7874 58.9559 55.7085C58.9932 55.6098 59.0252 55.5058 59.0519 55.3965C59.1599 54.9725 59.2319 54.5245 59.2999 54.0765C59.4359 53.1765 59.5359 52.2525 59.6199 51.3165V51.3365C59.5843 51.0068 59.6559 50.6744 59.8239 50.3885C59.8881 50.3068 59.9761 50.2471 60.0757 50.2177C60.1754 50.1883 60.2817 50.1907 60.3799 50.2245C60.4638 50.271 60.5375 50.334 60.5966 50.4096C60.6557 50.4852 60.699 50.5718 60.7239 50.6645C60.852 51.1564 60.9046 51.6648 60.8799 52.1725C60.8799 52.6685 60.8359 53.1565 60.7919 53.6405C60.7479 54.1245 60.6879 54.6005 60.6199 55.0725C60.5839 55.3125 60.5479 55.5445 60.5119 55.7805C60.4799 55.9285 60.4879 55.9325 60.5119 55.9765C60.5397 55.9952 60.5724 56.0053 60.6059 56.0053C60.6394 56.0053 60.6721 55.9952 60.6999 55.9765C60.7479 55.9405 60.7559 55.8725 60.7679 55.7405L60.7959 55.3925L60.8679 54.7005C60.9159 54.2445 60.9799 53.7885 61.0559 53.3445C61.1299 52.8985 61.2369 52.4587 61.3759 52.0285C61.4485 51.8111 61.5465 51.603 61.6679 51.4085C61.734 51.3037 61.8212 51.2138 61.9239 51.1445C61.9809 51.1032 62.047 51.0762 62.1166 51.0658C62.1862 51.0554 62.2573 51.0618 62.3239 51.0845C62.3852 51.1223 62.4369 51.1737 62.4751 51.2348C62.5132 51.2958 62.5368 51.3648 62.5439 51.4365C62.5604 51.549 62.5671 51.6628 62.5639 51.7765C62.5639 51.9965 62.5359 52.2085 62.5119 52.4205C62.4559 52.8205 62.3799 53.2445 62.3079 53.6485C62.1361 54.4083 62.0529 55.1855 62.0599 55.9645C62.0712 56.0481 62.0927 56.1301 62.1239 56.2085C62.1384 56.2369 62.1558 56.2637 62.1759 56.2885C62.1759 56.2885 62.1759 56.2885 62.1759 56.2605C62.2657 56.1159 62.3319 55.9579 62.3719 55.7925C62.4759 55.4445 62.5599 55.0925 62.6519 54.7485C62.7344 54.4062 62.8345 54.0684 62.9519 53.7365C63.0073 53.5721 63.0797 53.4139 63.1679 53.2645C63.2156 53.1831 63.278 53.1112 63.3519 53.0525C63.3921 53.0176 63.4401 52.9929 63.4919 52.9805C63.5436 52.9724 63.5962 52.9724 63.6479 52.9805C63.7025 52.9859 63.7546 53.0059 63.7989 53.0382C63.8432 53.0706 63.8781 53.1142 63.8999 53.1645C63.9333 53.2485 63.9509 53.338 63.9519 53.4285C63.955 53.5903 63.9457 53.7521 63.9239 53.9125C63.8879 54.2245 63.8279 54.5205 63.7719 54.8125C63.6559 55.3845 63.5279 55.9285 63.3719 56.4125C63.0719 57.4045 62.7719 58.2445 62.5279 58.9285C62.2839 59.6125 62.0759 60.1285 61.9359 60.4965C61.8679 60.6645 61.8119 60.7965 61.7719 60.8965C61.754 60.9619 61.7285 61.025 61.6959 61.0845Z" fill="#EB996E"/>
<path d="M39.8601 72.3565C40.6201 75.0405 42.1081 79.1805 43.7041 83.5565C43.7544 83.6975 43.8454 83.8204 43.9656 83.9096C44.0859 83.9988 44.2298 84.0503 44.3794 84.0576C44.5289 84.0649 44.6772 84.0276 44.8055 83.9505C44.9338 83.8734 45.0363 83.76 45.1001 83.6245L49.0121 75.3485C49.0121 75.3485 48.0681 68.5485 48.1481 68.7925C48.2281 69.0365 40.0761 69.6725 40.0761 69.6725L39.8601 72.3565Z" fill="#EBEBEB"/>
<path d="M48.676 71.0246C48.676 71.0566 48.188 71.2006 47.416 71.4966C46.4071 71.8795 45.4351 72.3535 44.512 72.9126C43.5901 73.4743 42.7201 74.1168 41.912 74.8326C41.292 75.3806 40.936 75.7566 40.912 75.7326C40.888 75.7086 40.98 75.6206 41.132 75.4406C41.3463 75.1904 41.5732 74.9514 41.812 74.7246C42.6005 73.9653 43.4696 73.2947 44.404 72.7246C45.3386 72.1614 46.331 71.7001 47.364 71.3486C47.6763 71.241 47.994 71.1502 48.316 71.0766C48.4325 71.0401 48.554 71.0226 48.676 71.0246Z" fill="#FAFAFA"/>
<path d="M50.228 73.0886C49.9738 72.8323 49.7533 72.5446 49.572 72.2326C49.1048 71.5043 48.7033 70.7359 48.372 69.9366C48.0404 69.1349 47.7821 68.3048 47.6 67.4566C47.5067 67.1096 47.4597 66.7519 47.46 66.3926C47.5793 66.728 47.6742 67.0715 47.744 67.4206C47.9583 68.2489 48.2255 69.0625 48.544 69.8566C48.8767 70.6465 49.2588 71.4146 49.688 72.1566C49.8877 72.4554 50.0681 72.7667 50.228 73.0886Z" fill="#263238"/>
<path d="M52.8359 36.4403C52.1573 37.5588 51.7366 38.8145 51.6045 40.116C51.4723 41.4176 51.632 42.7322 52.0719 43.9643C52.4719 45.0643 53.1119 46.1483 52.9959 47.3163C52.8799 48.4843 51.9679 49.6403 52.2879 50.7923C52.4799 51.4763 53.0639 51.9923 53.2919 52.6563C53.5519 53.4563 53.2919 54.3003 53.1519 55.1203C52.8319 57.2163 53.5039 59.3243 53.6679 61.4363C53.8319 63.5483 53.2679 66.0243 51.3799 66.9443C50.8079 67.2243 50.0599 67.3043 49.5839 66.8763C48.9759 66.3363 49.1439 65.3603 49.3119 64.5603C50.9679 56.5603 45.8519 48.7523 47.0199 40.6563C47.2079 39.3603 47.9319 37.1603 48.8639 36.2563C49.7959 35.3523 52.3839 35.4563 53.2639 36.4163" fill="#263238"/>
<path d="M44.9561 59.6479C44.9561 59.6479 45.2001 59.3599 45.5601 58.7919C46.0653 57.9898 46.4191 57.1017 46.6041 56.1719C46.7247 55.5315 46.7664 54.8786 46.7281 54.2279C46.6581 53.4714 46.63 52.7116 46.6441 51.9519C46.6679 51.5359 46.7445 51.1246 46.8721 50.7279C47.0182 50.3193 47.2031 49.9255 47.4241 49.5519C47.8721 48.7959 48.4361 48.0919 48.9561 47.3399C49.49 46.6292 49.8614 45.8099 50.0441 44.9399C50.1327 44.1205 50.0854 43.292 49.9041 42.4879C49.7527 41.7407 49.6936 40.9776 49.7281 40.2159C49.7756 39.5506 49.9101 38.8944 50.1281 38.2639C50.4336 37.3491 50.9146 36.5027 51.5441 35.7719C51.7113 35.5733 51.8931 35.3874 52.0881 35.2159C52.1499 35.1501 52.2198 35.0923 52.2961 35.0439C52.2961 35.0439 52.0281 35.3039 51.6041 35.8439C50.5942 37.0975 50.0037 38.6366 49.9161 40.2439C49.8893 40.9932 49.9551 41.7428 50.1121 42.4759C50.3029 43.3016 50.3542 44.1533 50.2641 44.9959C50.0744 45.8902 49.6922 46.7324 49.1441 47.4639C48.6201 48.2279 48.0561 48.9279 47.6161 49.6639C47.3996 50.0236 47.2201 50.4042 47.0801 50.7999C46.9535 51.1804 46.8769 51.5757 46.8521 51.9759C46.8344 52.7272 46.8557 53.4789 46.9161 54.2279C46.9478 54.8917 46.8968 55.5568 46.7641 56.2079C46.5636 57.1504 46.1833 58.0454 45.6441 58.8439C45.498 59.0598 45.3377 59.2656 45.1641 59.4599C45.1018 59.53 45.0321 59.5931 44.9561 59.6479Z" fill="#455A64"/>
<path d="M41.1641 60.2444C41.1963 60.1511 41.2378 60.0614 41.2881 59.9764C41.3881 59.7884 41.5161 59.5404 41.6881 59.2284C42.0241 58.5764 42.5241 57.6284 43.0161 56.4284C43.6179 55.0269 43.9517 53.5249 44.0001 52.0004C44.0003 51.5612 43.9669 51.1226 43.9001 50.6884C43.8321 50.2404 43.7281 49.7884 43.6601 49.3164C43.5769 48.8282 43.5877 48.3286 43.6921 47.8444C43.8273 47.3473 44.1055 46.9009 44.4921 46.5604C45.2441 45.8764 46.1521 45.4284 46.6241 44.6244C47.033 43.8272 47.274 42.9545 47.3321 42.0604C47.4167 41.2408 47.6021 40.4347 47.8841 39.6604C48.5181 37.9982 49.6478 36.5711 51.1201 35.5724C51.3548 35.4144 51.5993 35.2715 51.8521 35.1444C51.9374 35.0933 52.0288 35.053 52.1241 35.0244C52.1241 35.0244 51.7641 35.2164 51.1681 35.6404C50.328 36.2399 49.6008 36.9833 49.0201 37.8364C48.6173 38.4212 48.2894 39.0541 48.0441 39.7204C47.7745 40.4965 47.5999 41.3024 47.5241 42.1204C47.4041 42.9724 47.3081 43.9244 46.7961 44.7684C46.2841 45.6124 45.3481 46.0924 44.6321 46.7684C44.2672 47.0851 44.0041 47.5026 43.8761 47.9684C43.7788 48.4265 43.7693 48.8988 43.8481 49.3604C43.9121 49.8204 44.0121 50.2764 44.0801 50.7284C44.1493 51.173 44.1814 51.6225 44.1761 52.0724C44.1217 53.6249 43.77 55.1525 43.1401 56.5724C42.7309 57.532 42.2661 58.4669 41.7481 59.3724L41.3241 60.0004C41.2795 60.0872 41.2259 60.169 41.1641 60.2444Z" fill="#455A64"/>
<path d="M173.508 173.272C173.526 173.214 173.551 173.158 173.58 173.104C173.636 172.984 173.712 172.824 173.804 172.62C174.082 171.996 174.306 171.348 174.472 170.684C174.912 168.964 175.068 166.336 174.416 163.216C174.062 161.515 173.598 159.838 173.028 158.196C172.444 156.416 171.76 154.528 171.204 152.484C170.576 150.353 170.273 148.138 170.304 145.916C170.388 143.592 171.076 141.276 171.832 138.964C172.588 136.652 173.368 134.4 173.6 132.12C173.858 129.934 173.418 127.722 172.344 125.8C171.344 123.956 170.084 122.376 169.144 120.744C168.264 119.228 167.615 117.589 167.22 115.88C166.652 113.407 166.61 110.843 167.096 108.352C167.273 107.441 167.541 106.55 167.896 105.692C167.885 105.752 167.869 105.811 167.848 105.868L167.688 106.376C167.552 106.824 167.372 107.496 167.2 108.376C166.753 110.856 166.82 113.4 167.396 115.852C167.797 117.54 168.448 119.158 169.328 120.652C170.268 122.252 171.532 123.852 172.556 125.704C173.657 127.665 174.109 129.923 173.848 132.156C173.612 134.468 172.828 136.744 172.072 139.052C171.316 141.36 170.636 143.652 170.552 145.936C170.516 148.136 170.813 150.329 171.432 152.44C171.98 154.472 172.652 156.36 173.232 158.148C173.797 159.799 174.251 161.485 174.592 163.196C175.228 166.34 175.048 168.996 174.592 170.72C174.414 171.385 174.174 172.032 173.876 172.652L173.628 173.128C173.594 173.181 173.553 173.229 173.508 173.272Z" fill="#263238"/>
<path d="M170.424 122.356C170.424 122.356 168.512 116.232 171.944 112.648C171.97 112.619 172.005 112.599 172.042 112.588C172.08 112.577 172.12 112.577 172.158 112.588C172.196 112.599 172.23 112.62 172.256 112.649C172.283 112.678 172.3 112.714 172.308 112.752C172.492 113.764 172.72 116.844 170.424 122.356Z" fill="#EBEBEB"/>
<path d="M171.572 114.688C171.566 115.068 171.523 115.446 171.444 115.816C171.316 116.596 171.168 117.508 171.008 118.516C170.848 119.524 170.7 120.44 170.576 121.216C170.541 121.595 170.474 121.969 170.376 122.336C170.338 121.958 170.346 121.577 170.4 121.2C170.464 120.5 170.588 119.54 170.76 118.484C170.932 117.428 171.12 116.484 171.268 115.792C171.326 115.414 171.428 115.044 171.572 114.688Z" fill="#263238"/>
<path d="M172.672 136.801C172.672 136.801 173.844 130.493 178.556 128.933C178.593 128.92 178.633 128.917 178.671 128.926C178.71 128.934 178.745 128.953 178.773 128.981C178.802 129.008 178.822 129.043 178.831 129.081C178.841 129.119 178.84 129.159 178.828 129.197C178.516 130.169 177.28 132.997 172.672 136.801Z" fill="#EBEBEB"/>
<path d="M177.272 130.553C177.089 130.886 176.875 131.201 176.632 131.493L174.98 133.673L173.34 135.861C173.133 136.178 172.899 136.477 172.64 136.753C172.786 136.401 172.974 136.068 173.2 135.761C173.6 135.173 174.144 134.381 174.8 133.529C175.456 132.677 176.052 131.929 176.504 131.385C176.729 131.08 176.986 130.801 177.272 130.553Z" fill="#263238"/>
<path d="M171.4 152.612C171.4 152.612 170.688 146.236 174.744 143.376C174.775 143.352 174.813 143.337 174.852 143.333C174.892 143.329 174.932 143.337 174.967 143.355C175.002 143.373 175.032 143.401 175.052 143.435C175.072 143.469 175.081 143.509 175.08 143.548C175.068 144.576 174.704 147.64 171.4 152.612Z" fill="#EBEBEB"/>
<path d="M174 145.305C173.926 145.677 173.812 146.041 173.66 146.389L172.716 148.957C172.364 149.917 172.048 150.785 171.78 151.525C171.677 151.889 171.543 152.244 171.38 152.585C171.417 152.205 171.5 151.832 171.628 151.473C171.824 150.801 172.128 149.873 172.5 148.873C172.872 147.873 173.236 146.973 173.512 146.329C173.639 145.972 173.803 145.629 174 145.305Z" fill="#263238"/>
<path d="M174.948 168.524C174.948 168.524 174.468 162.124 178.62 159.412C178.653 159.39 178.691 159.377 178.73 159.375C178.769 159.373 178.809 159.382 178.843 159.402C178.878 159.421 178.906 159.449 178.925 159.483C178.945 159.518 178.954 159.557 178.952 159.596C178.904 160.624 178.432 163.676 174.948 168.524Z" fill="#EBEBEB"/>
<path d="M177.796 161.316C177.706 161.686 177.579 162.045 177.416 162.388C177.12 163.116 176.768 163.988 176.38 164.92C175.992 165.852 175.652 166.72 175.356 167.452C175.238 167.813 175.086 168.163 174.904 168.496C174.957 168.118 175.055 167.747 175.196 167.392C175.416 166.728 175.752 165.816 176.16 164.828C176.568 163.84 176.96 162.952 177.26 162.32C177.402 161.968 177.582 161.631 177.796 161.316Z" fill="#263238"/>
<path d="M167.672 116.976C167.672 116.976 162 114 161.876 109.044C161.876 109.005 161.886 108.967 161.905 108.933C161.925 108.9 161.953 108.872 161.987 108.853C162.021 108.834 162.06 108.825 162.099 108.826C162.137 108.827 162.175 108.839 162.208 108.86C163.052 109.444 165.396 111.46 167.672 116.976Z" fill="#EBEBEB"/>
<path d="M163.056 110.748C163.322 111.02 163.559 111.319 163.764 111.64C164.228 112.276 164.768 113.028 165.364 113.856L166.964 116.064C167.208 116.354 167.425 116.666 167.612 116.996C167.319 116.753 167.057 116.475 166.832 116.168C166.38 115.632 165.788 114.864 165.164 113.996C164.54 113.128 163.992 112.324 163.616 111.736C163.395 111.427 163.208 111.096 163.056 110.748Z" fill="#263238"/>
<path d="M173.78 130.124C173.78 130.124 167.924 127.504 167.512 122.556C167.509 122.517 167.516 122.478 167.534 122.443C167.551 122.408 167.578 122.379 167.611 122.358C167.644 122.338 167.682 122.327 167.721 122.326C167.76 122.326 167.799 122.336 167.832 122.356C168.708 122.888 171.168 124.752 173.78 130.124Z" fill="#EBEBEB"/>
<path d="M168.8 124.188C169.082 124.442 169.337 124.725 169.56 125.032L171.296 127.148L173.036 129.256C173.297 129.532 173.532 129.831 173.74 130.148C173.433 129.922 173.154 129.66 172.908 129.368C172.428 128.856 171.788 128.128 171.112 127.3C170.436 126.472 169.844 125.7 169.428 125.136C169.184 124.845 168.974 124.527 168.8 124.188Z" fill="#263238"/>
<path d="M170.4 144.8C170.4 144.8 166.4 139.8 168.268 135.2C168.283 135.164 168.307 135.133 168.339 135.11C168.37 135.086 168.407 135.072 168.446 135.069C168.485 135.066 168.524 135.073 168.559 135.091C168.594 135.108 168.623 135.135 168.644 135.168C169.2 136.036 170.532 138.82 170.4 144.8Z" fill="#EBEBEB"/>
<path d="M168.672 137.232C168.809 137.588 168.908 137.956 168.968 138.332C169.136 139.1 169.332 140.004 169.548 141.004C169.764 142.004 169.968 142.904 170.136 143.672C170.243 144.037 170.317 144.411 170.356 144.788C170.18 144.448 170.046 144.088 169.956 143.716C169.76 143.04 169.52 142.116 169.296 141.052C169.072 139.988 168.896 139.052 168.784 138.364C168.705 137.992 168.668 137.613 168.672 137.232Z" fill="#263238"/>
<path d="M174.4 162.044C174.4 162.044 168.588 159.328 168.26 154.376C168.256 154.337 168.263 154.297 168.281 154.261C168.299 154.226 168.326 154.196 168.36 154.175C168.393 154.154 168.432 154.143 168.472 154.144C168.512 154.144 168.55 154.155 168.584 154.176C169.444 154.724 171.872 156.632 174.4 162.044Z" fill="#EBEBEB"/>
<path d="M169.508 156.024C169.783 156.287 170.032 156.575 170.252 156.884L171.952 159.024L173.656 161.164C173.912 161.444 174.143 161.747 174.344 162.068C174.046 161.835 173.778 161.566 173.544 161.268C173.068 160.748 172.444 160.008 171.78 159.168C171.116 158.328 170.54 157.548 170.132 156.976C169.888 156.684 169.678 156.365 169.508 156.024Z" fill="#263238"/>
<path d="M185.964 136.828C185.964 136.828 185.964 136.876 185.964 136.968C185.964 137.06 185.964 137.212 185.964 137.368C185.964 137.768 185.924 138.276 185.896 138.924C185.824 140.292 185.716 142.2 185.592 144.48C185.192 146.8 183.992 149.372 182.392 151.872C181.228 153.712 179.992 155.384 178.952 156.94C178.003 158.306 177.15 159.736 176.4 161.22C175.903 162.223 175.502 163.27 175.2 164.348C175.1 164.728 175.02 165.028 174.976 165.232C174.957 165.338 174.929 165.443 174.892 165.544C174.893 165.436 174.907 165.329 174.932 165.224C174.96 165.016 175.02 164.712 175.112 164.324C175.381 163.228 175.763 162.162 176.252 161.144C176.996 159.648 177.847 158.208 178.8 156.836C179.848 155.268 181.06 153.592 182.22 151.764C183.8 149.276 184.976 146.744 185.42 144.46C185.58 142.184 185.712 140.28 185.82 138.912C185.872 138.264 185.916 137.748 185.948 137.36C185.948 137.2 185.976 137.064 185.988 136.96C185.975 136.917 185.966 136.873 185.964 136.828Z" fill="#263238"/>
<path d="M182.504 151.412C182.504 151.412 184.964 145.492 181.872 141.608C181.848 141.577 181.816 141.553 181.779 141.539C181.742 141.525 181.702 141.522 181.664 141.529C181.625 141.537 181.59 141.555 181.561 141.581C181.532 141.608 181.511 141.642 181.5 141.68C181.224 142.672 180.716 145.716 182.504 151.412Z" fill="#EBEBEB"/>
<path d="M182.056 143.677C182.162 144.042 182.228 144.417 182.252 144.797C182.34 145.493 182.436 146.457 182.512 147.525C182.588 148.593 182.624 149.561 182.624 150.265C182.648 150.645 182.625 151.026 182.556 151.401C182.487 151.027 182.453 150.648 182.456 150.269C182.404 149.469 182.34 148.561 182.272 147.541C182.204 146.521 182.14 145.597 182.084 144.813C182.037 144.436 182.028 144.055 182.056 143.677Z" fill="#263238"/>
<g opacity="0.3">
<path d="M182.504 151.412C182.504 151.412 184.964 145.492 181.872 141.608C181.848 141.577 181.816 141.553 181.779 141.539C181.742 141.525 181.702 141.522 181.664 141.529C181.625 141.537 181.59 141.555 181.561 141.581C181.532 141.608 181.511 141.642 181.5 141.68C181.224 142.672 180.716 145.716 182.504 151.412Z" fill="black"/>
</g>
<path d="M174.884 165.688C174.884 165.688 176.856 159.584 173.456 155.968C173.43 155.94 173.396 155.919 173.358 155.908C173.321 155.897 173.281 155.897 173.243 155.907C173.206 155.917 173.172 155.938 173.145 155.966C173.118 155.995 173.1 156.03 173.092 156.068C172.9 157.076 172.64 160.156 174.884 165.688Z" fill="#EBEBEB"/>
<path d="M173.808 158C173.946 158.356 174.043 158.726 174.096 159.104C174.24 159.788 174.412 160.744 174.576 161.8C174.74 162.856 174.852 163.82 174.912 164.52C174.964 164.898 174.971 165.281 174.932 165.66C174.837 165.293 174.773 164.918 174.74 164.54C174.624 163.76 174.488 162.848 174.34 161.836C174.192 160.824 174.048 159.912 173.94 159.132C173.859 158.76 173.815 158.381 173.808 158Z" fill="#263238"/>
<g opacity="0.3">
<path d="M174.884 165.688C174.884 165.688 176.856 159.584 173.456 155.968C173.43 155.94 173.396 155.919 173.358 155.908C173.321 155.897 173.281 155.897 173.243 155.907C173.206 155.917 173.172 155.938 173.145 155.966C173.118 155.995 173.1 156.03 173.092 156.068C172.9 157.076 172.64 160.156 174.884 165.688Z" fill="black"/>
</g>
<path d="M185.64 144.176C185.64 144.176 190.892 140.496 190.364 135.56C190.36 135.521 190.345 135.484 190.321 135.453C190.298 135.422 190.266 135.398 190.229 135.384C190.193 135.37 190.153 135.367 190.115 135.374C190.077 135.381 190.041 135.398 190.012 135.424C189.248 136.112 187.2 138.4 185.64 144.176Z" fill="#EBEBEB"/>
<g opacity="0.3">
<path d="M185.64 144.176C185.64 144.176 190.892 140.496 190.364 135.56C190.36 135.521 190.345 135.484 190.321 135.453C190.298 135.422 190.266 135.398 190.229 135.384C190.193 135.37 190.153 135.367 190.115 135.374C190.077 135.381 190.041 135.398 190.012 135.424C189.248 136.112 187.2 138.4 185.64 144.176Z" fill="black"/>
</g>
<path d="M189.412 137.404C189.308 137.771 189.161 138.124 188.976 138.456C188.676 139.088 188.24 139.952 187.732 140.896C187.224 141.84 186.736 142.676 186.36 143.268C186.175 143.601 185.951 143.91 185.692 144.188C185.832 143.836 186.007 143.499 186.212 143.18C186.588 142.488 187.032 141.68 187.52 140.78L188.824 138.38C188.988 138.037 189.185 137.71 189.412 137.404Z" fill="#263238"/>
<path d="M177.004 159.636C177.004 159.636 183.34 158.648 185.036 153.984C185.05 153.948 185.053 153.908 185.046 153.87C185.039 153.832 185.021 153.796 184.995 153.767C184.969 153.739 184.936 153.717 184.898 153.706C184.861 153.695 184.822 153.694 184.784 153.704C183.796 154 180.932 155.14 177.004 159.636Z" fill="#EBEBEB"/>
<g opacity="0.3">
<path d="M177.004 159.636C177.004 159.636 183.34 158.648 185.036 153.984C185.05 153.948 185.053 153.908 185.046 153.87C185.039 153.832 185.021 153.796 184.995 153.767C184.969 153.739 184.936 153.717 184.898 153.706C184.861 153.695 184.822 153.694 184.784 153.704C183.796 154 180.932 155.14 177.004 159.636Z" fill="black"/>
</g>
<path d="M183.372 155.221C183.115 155.501 182.828 155.752 182.516 155.969C181.968 156.409 181.196 156.993 180.328 157.617C179.46 158.241 178.648 158.773 178.048 159.141C177.735 159.359 177.397 159.538 177.04 159.673C177.324 159.42 177.631 159.193 177.956 158.997L180.188 157.421L182.416 155.821C182.713 155.587 183.033 155.386 183.372 155.221Z" fill="#263238"/>
<path d="M170.956 171.301L169.108 183.741H180.628L179.136 171.301H170.956Z" fill="#455A64"/>
<path d="M179.6 175.153C179.6 175.221 177.52 175.273 174.956 175.273C172.392 175.273 170.308 175.221 170.308 175.153C171.854 175.034 173.406 174.994 174.956 175.033C176.505 174.994 178.055 175.034 179.6 175.153Z" fill="#263238"/>
<path d="M179.824 176.144C179.824 176.212 177.676 176.264 175.024 176.264C172.372 176.264 170.224 176.212 170.224 176.144C170.224 176.076 172.372 176.024 175.024 176.024C177.676 176.024 179.824 176.076 179.824 176.144Z" fill="#263238"/>
<path d="M135.028 50.6155C135.028 50.6155 134.92 50.6155 134.712 50.6155C134.408 50.5975 134.104 50.5975 133.8 50.6155C132.625 50.6843 131.471 50.9549 130.388 51.4155C128.671 52.1351 127.178 53.299 126.06 54.7875C125.371 55.717 124.859 56.765 124.548 57.8795C123.848 60.5344 124.226 63.3584 125.6 65.7355C125.975 66.3937 126.432 67.0012 126.96 67.5435C127.493 68.118 128.114 68.6041 128.8 68.9835C129.504 69.3795 130.301 69.5798 131.108 69.5635C131.94 69.5535 132.739 69.2308 133.344 68.6595C133.637 68.3529 133.866 67.9916 134.019 67.5962C134.172 67.2009 134.246 66.7793 134.236 66.3555C134.23 65.475 133.95 64.6182 133.436 63.9035C132.4 62.4435 130.72 61.4635 128.932 60.9355C127.078 60.4148 125.12 60.3872 123.252 60.8555C122.299 61.1036 121.38 61.469 120.516 61.9435C119.644 62.4354 118.853 63.0572 118.168 63.7875C118.004 63.9755 117.816 64.1475 117.668 64.3555L117.216 64.9635C116.941 65.392 116.695 65.8383 116.48 66.2995C116.052 67.236 115.76 68.2286 115.612 69.2475C115.322 71.283 115.599 73.3592 116.412 75.2475C117.19 77.0926 118.544 78.6363 120.272 79.6475C121.11 80.1263 122.045 80.4093 123.008 80.4755C123.952 80.5283 124.891 80.303 125.708 79.8275C126.519 79.3792 127.16 78.6764 127.532 77.8275C127.883 76.9909 127.907 76.0532 127.6 75.1995C127.284 74.3759 126.767 73.6444 126.096 73.0715C125.445 72.5092 124.695 72.0737 123.884 71.7875C122.302 71.2888 120.61 71.2596 119.012 71.7035C117.517 72.1087 116.144 72.8736 115.012 73.9315C113.981 74.9189 113.196 76.134 112.72 77.4795C111.887 79.814 111.925 82.371 112.828 84.6795C113.532 86.4029 114.666 87.9176 116.12 89.0795C117.036 89.8144 118.057 90.4089 119.148 90.8435C119.524 90.9835 119.816 91.0875 120.016 91.1435L120.312 91.2395C120.312 91.2395 120.208 91.2195 120.008 91.1635C119.713 91.0844 119.422 90.9896 119.136 90.8795C118.031 90.4641 116.997 89.8783 116.072 89.1435C114.593 87.9824 113.437 86.4603 112.716 84.7235C111.797 82.3932 111.75 79.8096 112.584 77.4475C113.061 76.0816 113.855 74.848 114.9 73.8475C116.048 72.7684 117.441 71.9857 118.96 71.5675C120.592 71.1123 122.32 71.1401 123.936 71.6475C124.771 71.9387 125.543 72.3852 126.212 72.9635C126.909 73.5552 127.446 74.3133 127.772 75.1675C128.101 76.0593 128.087 77.0416 127.732 77.9235C127.338 78.8058 126.668 79.5369 125.824 80.0075C124.977 80.5014 124.004 80.7377 123.024 80.6875C122.038 80.6187 121.08 80.326 120.224 79.8315C118.456 78.8062 117.068 77.2358 116.268 75.3555C115.437 73.4326 115.152 71.3179 115.444 69.2435C115.597 68.204 115.896 67.1913 116.332 66.2355C116.552 65.7645 116.803 65.3088 117.084 64.8715L117.548 64.2515C117.696 64.0395 117.888 63.8515 118.056 63.6675C118.757 62.9234 119.566 62.2895 120.456 61.7875C121.34 61.304 122.28 60.9331 123.256 60.6835C125.16 60.2065 127.155 60.2354 129.044 60.7675C130.868 61.3115 132.576 62.3075 133.652 63.8195C134.193 64.564 134.487 65.4593 134.492 66.3795C134.512 67.2851 134.171 68.1613 133.544 68.8155C132.904 69.4163 132.062 69.7546 131.184 69.7635C130.344 69.7826 129.515 69.5739 128.784 69.1595C128.082 68.7721 127.447 68.2737 126.904 67.6835C126.369 67.1291 125.905 66.5096 125.524 65.8395C124.126 63.4182 123.746 60.5407 124.468 57.8395C124.788 56.7121 125.313 55.6532 126.016 54.7155C127.154 53.2157 128.674 52.0485 130.416 51.3355C131.508 50.8838 132.671 50.6292 133.852 50.5835C134.158 50.5633 134.466 50.5633 134.772 50.5835L135.028 50.6155Z" fill="#263238"/>
<path d="M148.384 90.6396H92.3V133.896H148.384V90.6396Z" fill="#EBEBEB"/>
<path d="M92.3 90.6396L102.66 100.304H157.792L148.384 90.6396H92.3Z" fill="#EBEBEB"/>
<path d="M92.3 90.6391L148.4 90.5391H148.444L148.476 90.5671L157.788 100.131L157.884 100.231L158.056 100.407H157.808L102.676 100.363H102.652L92.3 90.6391L102.7 100.239H102.656L157.788 100.199L157.716 100.375L157.616 100.275L148.308 90.7111L148.38 90.7431L92.3 90.6391Z" fill="#263238"/>
<path d="M109.148 110.588C108.844 110.599 108.557 110.729 108.348 110.949C108.139 111.17 108.025 111.464 108.03 111.768C108.036 112.072 108.16 112.362 108.377 112.575C108.594 112.788 108.886 112.907 109.19 112.907C109.494 112.907 109.786 112.788 110.003 112.575C110.22 112.362 110.344 112.072 110.35 111.768C110.355 111.464 110.241 111.17 110.032 110.949C109.823 110.729 109.536 110.599 109.232 110.588" fill="#263238"/>
<path d="M122.4 110.588C122.098 110.599 121.812 110.729 121.604 110.949C121.396 111.169 121.283 111.462 121.288 111.765C121.294 112.068 121.418 112.356 121.634 112.568C121.851 112.78 122.141 112.899 122.444 112.899C122.747 112.899 123.038 112.78 123.254 112.568C123.47 112.356 123.594 112.068 123.6 111.765C123.606 111.462 123.492 111.169 123.285 110.949C123.077 110.729 122.791 110.599 122.488 110.588" fill="#263238"/>
<path d="M122.476 120.94C122.245 120.056 121.869 119.217 121.364 118.456C120.802 117.642 120.081 116.951 119.244 116.424C118.234 115.754 117.057 115.381 115.845 115.348C114.634 115.314 113.437 115.622 112.392 116.236C111.529 116.718 110.771 117.368 110.164 118.148C109.617 118.881 109.197 119.7 108.92 120.572C108.923 120.507 108.934 120.443 108.952 120.38C108.99 120.2 109.04 120.022 109.1 119.848C109.319 119.205 109.639 118.602 110.048 118.06C110.651 117.244 111.418 116.562 112.3 116.06C113.372 115.42 114.604 115.098 115.852 115.132C117.1 115.166 118.313 115.555 119.348 116.252C120.2 116.799 120.927 117.519 121.484 118.364C121.864 118.928 122.152 119.549 122.336 120.204C122.385 120.382 122.424 120.562 122.452 120.744C122.466 120.808 122.474 120.874 122.476 120.94Z" fill="#263238"/>
<path opacity="0.5" d="M92.428 91.1152L102.348 103.691H148.384V100.303H102.66L92.428 91.1152Z" fill="black"/>
<path d="M137.324 133.799C137.268 133.799 137.22 126.275 137.22 116.999C137.22 107.723 137.268 100.199 137.324 100.199C137.38 100.199 137.432 107.719 137.432 116.999C137.432 126.279 137.384 133.799 137.324 133.799Z" fill="#263238"/>
<path d="M146.132 123.991H141.188V129.579H146.132V123.991Z" fill="#F5F5F5"/>
<path d="M92.3001 90.6396L80.7881 100.304H92.3001V90.6396Z" fill="#EBEBEB"/>
<g opacity="0.4">
<path d="M92.3001 90.6396L80.7881 100.304H92.3001V90.6396Z" fill="black"/>
</g>
<path d="M150.04 133.896H85.5562V183.632H150.04V133.896Z" fill="#EBEBEB"/>
<path opacity="0.3" d="M150.04 133.896H85.5562V183.632H150.04V133.896Z" fill="black"/>
<path d="M133.884 183.28C133.828 183.28 133.78 172.196 133.78 158.524C133.78 144.852 133.828 133.764 133.884 133.764C133.94 133.764 133.988 144.848 133.988 158.524C133.988 172.2 133.94 183.28 133.884 183.28Z" fill="#263238"/>
<path d="M144.572 172.312H139.628V177.9H144.572V172.312Z" fill="#F5F5F5"/>
<path d="M112.552 134.027H105.228V144.639H112.552V134.027Z" fill="#263238"/>
<path d="M112.552 172.871H105.228V183.483H112.552V172.871Z" fill="#263238"/>
<path d="M149.48 133.896H149.312H148.828L146.968 133.916L140.116 133.948L117.52 134L94.9162 133.972L88.0682 133.94L86.2082 133.92L88.0682 133.9L94.9162 133.868L117.52 133.836L140.116 133.868L146.968 133.9L148.828 133.92H149.312L149.48 133.896Z" fill="#263238"/>
<path d="M38.9681 47.7879L31.9441 46.0599H31.9961C30.1825 47.2136 28.0852 47.8434 25.9361 47.8799C24.6638 47.8857 23.3977 47.701 22.1801 47.3319C20.0393 46.6446 18.1401 45.3587 16.7069 43.6264C15.2736 41.894 14.3663 39.7875 14.0921 37.5559C13.8767 35.8682 14.0353 34.1537 14.5565 32.5341C15.0777 30.9145 15.9488 29.4293 17.1081 28.1839C17.7175 27.5146 18.4005 26.9161 19.1441 26.3999C19.5201 26.1639 19.8961 25.9199 20.2881 25.7159L20.8841 25.4279L21.1801 25.2839L21.4921 25.1719C23.0983 24.5494 24.8212 24.2859 26.5401 24.3999C28.8437 24.5495 31.0514 25.3776 32.8851 26.7799C34.7188 28.1823 36.0963 30.096 36.8441 32.2799C37.2595 33.5017 37.4783 34.7816 37.4921 36.0719C37.5021 38.2164 36.9193 40.3219 35.8081 42.1559V42.0919C37.7601 45.6159 38.7441 47.3959 38.9641 47.7879C38.7361 47.3879 37.7161 45.6399 35.6961 42.1519V42.1199V42.0879C36.7674 40.2716 37.3208 38.1965 37.2961 36.0879C37.2775 34.8183 37.0561 33.5597 36.6401 32.3599C35.9004 30.2207 34.5461 28.3471 32.7467 26.9739C30.9473 25.6007 28.7827 24.7888 26.5241 24.6399C24.8391 24.5301 23.1504 24.7895 21.5761 25.3999L21.2721 25.5079L20.9801 25.6519L20.3961 25.9319C19.9961 26.1359 19.6441 26.3719 19.2721 26.6039C18.5428 27.1063 17.872 27.6886 17.2721 28.3399C16.134 29.5625 15.2786 31.0203 14.7664 32.6101C14.2542 34.2 14.0977 35.8829 14.3081 37.5399C14.6789 40.5756 16.2364 43.3411 18.6401 45.2319C19.7147 46.0834 20.9343 46.7339 22.2401 47.1519C23.4359 47.5216 24.6805 47.709 25.9321 47.7079C28.0555 47.6852 30.1315 47.0776 31.9321 45.9519H31.9561H32.0001L38.9681 47.7879Z" fill="#263238"/>
<path d="M24.8002 30.9201L25.1562 36.8001C25.1704 37.0321 25.2689 37.2508 25.4332 37.4151C25.5975 37.5794 25.8163 37.6779 26.0482 37.6921C26.2922 37.7059 26.5323 37.6257 26.719 37.468C26.9057 37.3103 27.025 37.087 27.0522 36.8441L27.7042 30.9521C27.7155 30.8467 27.7044 30.7401 27.6714 30.6393C27.6384 30.5386 27.5844 30.446 27.5129 30.3677C27.4414 30.2894 27.3541 30.2272 27.2567 30.1852C27.1594 30.1432 27.0542 30.1224 26.9482 30.1241H25.5202C25.42 30.1271 25.3214 30.1503 25.2304 30.1923C25.1394 30.2344 25.0578 30.2944 24.9906 30.3687C24.9233 30.4431 24.8718 30.5302 24.8391 30.625C24.8064 30.7197 24.7931 30.8201 24.8002 30.9201Z" fill="#EBEBEB"/>
<path d="M27.6001 40.9755C27.5106 41.2441 27.3435 41.4802 27.1199 41.6538C26.8963 41.8275 26.6262 41.931 26.3438 41.9512C26.0614 41.9714 25.7793 41.9074 25.5332 41.7674C25.2872 41.6273 25.0882 41.4175 24.9613 41.1644C24.8345 40.9112 24.7855 40.6262 24.8206 40.3453C24.8557 40.0643 24.9733 39.8001 25.1586 39.586C25.3438 39.3718 25.5883 39.2174 25.8613 39.1422C26.1343 39.0671 26.4234 39.0745 26.6921 39.1635C26.8708 39.2228 27.0361 39.3167 27.1784 39.4398C27.3208 39.563 27.4375 39.713 27.5218 39.8813C27.6062 40.0496 27.6565 40.2329 27.6699 40.4206C27.6834 40.6084 27.6596 40.797 27.6001 40.9755Z" fill="#EBEBEB"/>
</svg>
